<svg xmlns="http://www.w3.org/2000/svg" viewBox="0 0 113.4 113.4" enable-background="new 0 0 113.4 113.4"><style type="text/css">.st0{fill:#0098DD;}</style><circle class="st0" cx="18.4" cy="28.6" r="6.8"/><circle class="st0" cx="18.4" cy="56.7" r="6.8"/><circle class="st0" cx="18.4" cy="84.8" r="6.8"/><path class="st0" d="M50.6 22.1h-13c-3.5 0-6.4 2.9-6.4 6.4v.1c0 3.5 2.9 6.4 6.4 6.4h64.2v-12.9h-51.2zM50.6 50.3h-13c-3.5 0-6.4 2.9-6.4 6.4v.1c0 3.5 2.9 6.4 6.4 6.4h64.2v-12.9h-51.2zM50.6 78.4h-13c-3.5 0-6.4 2.9-6.4 6.4v.1c0 3.5 2.9 6.4 6.4 6.4h64.2v-12.9h-51.2z"/></svg>