<svg xmlns="http://www.w3.org/2000/svg" viewBox="0 0 127.6 127.6" enable-background="new 0 0 127.6 127.6"><style type="text/css">.st0{fill:#1E95D4;}</style><path class="st0" d="M55.8 19.7v53.8c0 4.5 3.6 8.1 8.1 8.1.9 0 1.8-.2 2.7-.5 3.1-1.1 5.4-4.1 5.4-7.6v-34.7h-5.4v34.8c0 1.5-1.2 2.7-2.7 2.7-1.5 0-2.7-1.2-2.7-2.7v-48.5h16v59.5l-10.6 13.9-2.9 3.8-2.9-3.8-10.4-13.8v-45.9h-5.4v47.7l4.8 6.3 9.7 12.7.4.5.6.6c.9.8 2.1 1.2 3.3 1.2 1.3 0 2.4-.5 3.3-1.2l.6-.6.4-.5 9.7-12.7 4.8-6.3v-66.8h-26.8z"/></svg>