<svg xmlns="http://www.w3.org/2000/svg" viewBox="0 0 127.6 127.6" enable-background="new 0 0 127.6 127.6"><style type="text/css">.st0{fill:none;} .st1{fill:#1E95D4;}</style><path class="st0" d="M0 0h127.6v127.6h-127.6z" id="Box"/><path class="st1" d="M114.7 46.7l7-15.5-3.3-1.5 3.2-7c.6-1.4 0-3-1.4-3.6-1.4-.6-3 0-3.6 1.4l-3.2 7-4.9-2.2 3.2-7c.6-1.4 0-3-1.4-3.6-1.4-.6-3 0-3.6 1.4l-3.2 7-3.3-1.5-7 15.5c-2.1 4.6-1 9.9 2.4 13.3l-4.7 10.3h-7.7l-3.1-9.7c-1.4-4.5 1.6-8.5 1.6-8.5.4-.5.7-1.1 1-1.7 2.7-5.3 2-11.4-1.3-15.8l-6.7 13-7.4-.2-4.5-5.9 6.7-13c-5.5-.1-10.9 2.9-13.6 8.2-3.1 6-1.7 13.1 2.9 17.6 0 0 7.5 6.5 9.1 11.5l1.4 4.4h-12.8l-10.8-20.8c-.2-.4-.5-.9-.8-1.2-.4-.6-.8-1.1-1.2-1.6 0 0-8.6-6.8-15.2-9.1l-12.9 6.7c-1.9 6.7-1.3 17.6-1.3 17.6.3 1.1.7 2.2 1.3 3.2l2.6 5h-8v41.7c0 6.1 4.9 11 11 11h83.2c6.1 0 11-4.9 11-11v-41.6h-15.5l3.1-6.9c4.9.3 9.6-2.3 11.7-6.9zm-42.3 36.9h-19c-13 0-14.8-9.9-14.8-9.9h48.6c0-.1-1.9 9.9-14.8 9.9zm-47.6-58.9l-6.2-8.5-6.8 3.5 3.4 10 9.6-5z" id="Icon"/></svg>