<svg xmlns="http://www.w3.org/2000/svg" viewBox="0 0 113.4 113.4" enable-background="new 0 0 113.4 113.4"><style type="text/css">.st0{fill:#0098DD;}</style><path class="st0" d="M91.4 44c-5.8 0-10.7 3.9-12.2 9.3h-69.9v6.8h69.8c1.5 5.3 6.4 9.3 12.2 9.3 7 0 12.7-5.7 12.7-12.7s-5.6-12.7-12.6-12.7zm0 17.3c-2.5 0-4.6-2-4.6-4.6 0-2.5 2-4.6 4.6-4.6s4.6 2 4.6 4.6c-.1 2.5-2.1 4.6-4.6 4.6zM45.8 47.2l13-3.5c2.3 3.2 6 5.2 10.2 5.2 7 0 12.7-5.7 12.7-12.7s-5.7-12.7-12.7-12.7c-7 0-12.7 5.7-12.7 12.7 0 .3 0 .7.1 1l-11.3 3h-23.5v6.8l24.2.2zm23.2-15.5c2.5 0 4.6 2 4.6 4.6s-2 4.6-4.6 4.6-4.6-2-4.6-4.6 2.1-4.6 4.6-4.6zM69 64.5c-4.3 0-8 2.1-10.3 5.4l-12.7-3.5h-24.4v6.8h23.3l11.5 3.1v.9c0 7 5.7 12.7 12.7 12.7 7 0 12.7-5.7 12.7-12.7-.1-7.1-5.8-12.7-12.8-12.7zm0 17.2c-2.5 0-4.6-2-4.6-4.6s2-4.6 4.6-4.6 4.6 2 4.6 4.6-2 4.6-4.6 4.6z"/></svg>